
<svg t="1678426244029" class="icon" viewBox="0 0 1024 1024" version="1.1" xmlns="http://www.w3.org/2000/svg"  width="1.3em" height="1.3em"><path d="M597.333333 42.666667h0.853334c0.981333 0 1.962667 0.085333 2.986666 0.170666L597.333333 42.666667a43.008 43.008 0 0 1 26.325334 9.088l0.341333 0.298666 3.498667 3.114667 241.365333 241.365333c2.56 2.56 4.693333 5.290667 6.442667 8.234667 11.093333 6.656 18.858667 18.176 20.394666 31.573333L896 341.333333v512a128 128 0 0 1-128 128H256a128 128 0 0 1-128-128V170.666667a128 128 0 0 1 128-128h341.333333z m-42.666666 85.333333H256a42.666667 42.666667 0 0 0-42.368 37.674667L213.333333 170.666667v682.666666a42.666667 42.666667 0 0 0 37.674667 42.368L256 896h512a42.666667 42.666667 0 0 0 42.368-37.674667L810.666667 853.333333V384h-213.333334a42.666667 42.666667 0 0 1-42.666666-42.666667V128z m128 554.666667a42.666667 42.666667 0 0 1 0 85.333333H341.333333a42.666667 42.666667 0 0 1 0-85.333333h341.333334z m0-170.666667a42.666667 42.666667 0 0 1 0 85.333333H341.333333a42.666667 42.666667 0 0 1 0-85.333333h341.333334z m-256-170.666667a42.666667 42.666667 0 0 1 0 85.333334H341.333333a42.666667 42.666667 0 1 1 0-85.333334h85.333334z m213.333333-152.96V298.666667h110.336L640 188.373333z" fill="currentColor" ></path></svg>