
<svg t="1678347701240" class="icon" viewBox="0 0 1024 1024" version="1.1" xmlns="http://www.w3.org/2000/svg" p-id="19401" width="1.4rem" height="1.4rem"  fill="none"><path  fill="currentColor" d="M128 128a42.666667 42.666667 0 0 1 42.666667-42.666667h682.666666a42.666667 42.666667 0 0 1 42.666667 42.666667v768a42.666667 42.666667 0 0 1-42.666667 42.666667H170.666667a42.666667 42.666667 0 0 1-42.666667-42.666667V128z m85.333333 42.666667v682.666666h597.333334V170.666667H213.333333z" fill="#000000" p-id="19402"></path><path  fill="currentColor" d="M725.333333 384H298.666667v-85.333333h426.666666v85.333333zM725.333333 554.666667H298.666667v-85.333334h426.666666v85.333334zM576 725.333333H298.666667v-85.333333h277.333333v85.333333z" fill="#000000" p-id="19403"></path></svg>