<!-- 
<svg t="1678425827223" class="icon" viewBox="0 0 1024 1024" version="1.1" xmlns="http://www.w3.org/2000/svg" p-id="21456" width="1.3rem" height="1.3rem"><path fill="currentColor" d="M845.913043 22.26087H178.086957c-24.486957 0-44.521739 20.034783-44.52174 44.521739v890.434782c0 24.486957 20.034783 44.521739 44.52174 44.521739h667.826086c24.486957 0 44.521739-20.034783 44.52174-44.521739V66.782609c0-24.486957-20.034783-44.521739-44.52174-44.521739z m-44.521739 890.434782H222.608696V111.304348h578.782608v801.391304zM328.347826 617.73913c0-21.147826 17.808696-38.956522 38.956522-38.956521h131.33913c21.147826 0 38.956522 17.808696 38.956522 38.956521S519.791304 656.695652 498.643478 656.695652H367.304348c-22.26087 0-38.956522-17.808696-38.956522-38.956522z m5.565217-178.086956c0-21.147826 17.808696-38.956522 38.956522-38.956522h264.904348c21.147826 0 38.956522 17.808696 38.956522 38.956522S660.034783 478.608696 637.773913 478.608696H372.869565c-21.147826 0-38.956522-17.808696-38.956522-38.956522z m0-166.956522c0-21.147826 17.808696-38.956522 38.956522-38.956522h264.904348c21.147826 0 38.956522 17.808696 38.956522 38.956522S660.034783 311.652174 637.773913 311.652174H372.869565c-21.147826 0-38.956522-17.808696-38.956522-38.956522z m330.573914 320.556522c6.678261 6.678261 11.130435 16.695652 11.130434 27.826087 0 10.017391-4.452174 20.034783-11.130434 27.826087s-17.808696 11.130435-27.826087 11.130435-20.034783-4.452174-27.826087-11.130435-11.130435-16.695652-11.130435-27.826087c0-10.017391 4.452174-20.034783 11.130435-27.826087 14.469565-14.469565 41.182609-14.469565 55.652174 0z" p-id="21457"></path></svg> -->

<svg t="1678426244029" class="icon" viewBox="0 0 1024 1024" version="1.1" xmlns="http://www.w3.org/2000/svg" p-id="34609" width="1.3rem" height="1.3rem"><path d="M597.333333 42.666667h0.853334c0.981333 0 1.962667 0.085333 2.986666 0.170666L597.333333 42.666667a43.008 43.008 0 0 1 26.325334 9.088l0.341333 0.298666 3.498667 3.114667 241.365333 241.365333c2.56 2.56 4.693333 5.290667 6.442667 8.234667 11.093333 6.656 18.858667 18.176 20.394666 31.573333L896 341.333333v512a128 128 0 0 1-128 128H256a128 128 0 0 1-128-128V170.666667a128 128 0 0 1 128-128h341.333333z m-42.666666 85.333333H256a42.666667 42.666667 0 0 0-42.368 37.674667L213.333333 170.666667v682.666666a42.666667 42.666667 0 0 0 37.674667 42.368L256 896h512a42.666667 42.666667 0 0 0 42.368-37.674667L810.666667 853.333333V384h-213.333334a42.666667 42.666667 0 0 1-42.666666-42.666667V128z m128 554.666667a42.666667 42.666667 0 0 1 0 85.333333H341.333333a42.666667 42.666667 0 0 1 0-85.333333h341.333334z m0-170.666667a42.666667 42.666667 0 0 1 0 85.333333H341.333333a42.666667 42.666667 0 0 1 0-85.333333h341.333334z m-256-170.666667a42.666667 42.666667 0 0 1 0 85.333334H341.333333a42.666667 42.666667 0 1 1 0-85.333334h85.333334z m213.333333-152.96V298.666667h110.336L640 188.373333z" fill="currentColor" p-id="34610"></path></svg>