<!-- 
<svg t="1678424521486" class="icon" viewBox="0 0 1024 1024" version="1.1" xmlns="http://www.w3.org/2000/svg" p-id="5968" fill="none"  width="1.56rem" height="1.56rem"><path fill="currentColor" d="M753.493333 355.84a42.666667 42.666667 0 0 0 29.866667-12.373333l30.293333-30.293334a42.666667 42.666667 0 1 0-60.16-60.16l-28.16 30.293334a42.666667 42.666667 0 0 0 0 60.16 42.666667 42.666667 0 0 0 28.16 12.373333zM512 256a42.666667 42.666667 0 0 0 42.666667-42.666667V170.666667a42.666667 42.666667 0 0 0-85.333334 0v42.666666a42.666667 42.666667 0 0 0 42.666667 42.666667z m-341.333333 256H128a42.666667 42.666667 0 0 0 0 85.333333h42.666667a42.666667 42.666667 0 0 0 0-85.333333z m69.973333-168.533333a42.666667 42.666667 0 0 0 29.866667 12.373333 42.666667 42.666667 0 0 0 30.293333-12.373333 42.666667 42.666667 0 0 0 0-60.16l-30.293333-30.293334a42.666667 42.666667 0 0 0-60.16 60.16zM896 512h-42.666667a42.666667 42.666667 0 0 0 0 85.333333h42.666667a42.666667 42.666667 0 0 0 0-85.333333z m-426.666667 298.666667H341.333333a42.666667 42.666667 0 0 0 0 85.333333h128a42.666667 42.666667 0 0 0 0-85.333333z m298.666667-170.666667h-37.546667a229.973333 229.973333 0 0 0 16.213334-85.333333 234.666667 234.666667 0 0 0-469.333334 0 229.973333 229.973333 0 0 0 16.213334 85.333333H256a42.666667 42.666667 0 0 0 0 85.333333h512a42.666667 42.666667 0 0 0 0-85.333333z m-134.4 0h-243.2a146.773333 146.773333 0 0 1-27.733333-85.333333 149.333333 149.333333 0 0 1 298.666666 0 146.773333 146.773333 0 0 1-27.733333 85.333333zM682.666667 810.666667h-42.666667a42.666667 42.666667 0 0 0 0 85.333333h42.666667a42.666667 42.666667 0 0 0 0-85.333333z" p-id="5969"></path></svg> -->


<svg t="1678426486528" class="icon" viewBox="0 0 1024 1024" version="1.1" xmlns="http://www.w3.org/2000/svg" p-id="36857" width="1.15rem" height="1.15rem"><path fill="currentColor" d="M512 120c22.092 0 40-17.908 40-40V40c0-22.092-17.908-40-40-40s-40 17.908-40 40v40c0 22.092 17.908 40 40 40zM261.334 157.894c7.41 12.832 20.854 20.004 34.678 20.004 6.788 0 13.666-1.73 19.964-5.368 19.13-11.046 25.686-35.51 14.638-54.642l-20.002-34.64c-11.046-19.132-35.512-25.684-54.642-14.638s-25.686 35.51-14.638 54.642l20.002 34.642zM886.16 336.006a39.82 39.82 0 0 0 19.962-5.366l34.64-20c19.13-11.046 25.688-35.508 14.64-54.64-11.044-19.132-35.51-25.688-54.64-14.64l-34.64 20c-19.13 11.046-25.688 35.508-14.64 54.64 7.408 12.834 20.854 20.006 34.678 20.006zM716.666 177.672a39.812 39.812 0 0 0 20.848 5.89c13.462 0 26.608-6.798 34.152-19.122l20.884-34.116c11.534-18.842 5.612-43.466-13.23-55-18.838-11.534-43.464-5.612-55 13.23l-20.884 34.116c-11.534 18.844-5.612 43.468 13.23 55.002zM666 944H362c-22.092 0-40 17.908-40 40s17.908 40 40 40h304c22.092 0 40-17.908 40-40s-17.908-40-40-40zM984 464h-163.548c-10.254-66.584-41.742-127.886-90.82-175.62C671.034 231.388 593.744 200 512 200c-81.74 0-159.014 31.39-217.582 88.388-49.042 47.726-80.496 109.028-90.744 175.612H40c-22.092 0-40 17.908-40 40s17.908 40 40 40h544c22.092 0 40-17.908 40-40s-17.908-40-40-40H284.896C306.8 358.056 399.718 280 512 280c126.456 0 228.37 98.9 232.016 225.156C744.64 526.788 762.358 544 784 544h200c22.092 0 40-17.908 40-40s-17.908-40-40-40zM826 624H202c-22.092 0-40 17.908-40 40s17.908 40 40 40h624c22.092 0 40-17.908 40-40s-17.908-40-40-40zM88.328 300.138l34.136 20.848a39.82 39.82 0 0 0 20.81 5.868c13.478 0 26.634-6.812 34.174-19.158 11.516-18.854 5.564-43.47-13.29-54.986l-34.136-20.848c-18.852-11.512-43.47-5.566-54.984 13.29-11.514 18.854-5.564 43.472 13.29 54.986zM746 784H282c-22.092 0-40 17.908-40 40s17.908 40 40 40h464c22.092 0 40-17.908 40-40s-17.908-40-40-40z" p-id="36858"></path></svg>