<!-- <?xml version="1.0" encoding="UTF-8"?><svg width="1.3em" height="1.3em" viewBox="0 0 48 48" fill="none" xmlns="http://www.w3.org/2000/svg"><path d="M24 44C35.0457 44 44 35.0457 44 24C44 12.9543 35.0457 4 24 4C12.9543 4 4 12.9543 4 24C4 35.0457 12.9543 44 24 44Z" stroke="currentColor" stroke-width="4"/><path d="M4 20.8404C7.01485 19.4168 9.24466 19.2185 10.6894 20.2454C12.8566 21.7859 13.1283 28.064 18.0575 25.0635C22.9867 22.063 15.9467 20.8404 17.475 16.4939C19.0033 12.1474 24.0083 15.5237 24.5059 10.7627C24.8375 7.58862 21.0408 6.37413 13.1156 7.11921" stroke="currentColor" stroke-width="4"/><path d="M36.0001 8C30.2857 12.9886 28.2899 16.0011 30.0127 17.0373C32.5968 18.5917 33.6933 16.4033 36.8467 17.0373C40.0001 17.6714 39.3173 21.9457 37.6587 21.9457C36.0001 21.9457 27.41 20.8518 27.8427 25.865C28.2753 30.8781 33.4422 31.6203 33.4422 34.4211C33.4422 36.2883 32.299 39.146 30.0127 42.9942" stroke="currentColor" stroke-width="4" stroke-linecap="round"/><path d="M6.10449 32.9264C7.01598 32.5288 7.70115 32.2374 8.15999 32.052C12.0071 30.4978 14.8617 30.1314 16.7236 30.953C20.0161 32.4059 18.7503 35.3401 19.7816 36.4211C20.8128 37.5021 23.388 37.1876 23.388 39.244C23.388 40.615 22.9275 42.1637 22.0065 43.8901" stroke="currentColor" stroke-width="4" stroke-linecap="round"/></svg> -->

<?xml version="1.0" encoding="UTF-8"?><svg width="1.3em" height="1.3em" viewBox="0 0 48 48" fill="none" xmlns="http://www.w3.org/2000/svg"><path d="M24 44.0002C35.0457 44.0002 44 35.0459 44 24.0002C44 12.9545 35.0457 4.00024 24 4.00024C12.9543 4.00024 4 12.9545 4 24.0002C4 35.0459 12.9543 44.0002 24 44.0002Z" stroke="currentColor" stroke-width="4"/><path d="M6 30.9856C8.63192 32.041 10.5266 32.041 11.6839 30.9856C13.4199 29.4025 11.9219 24.5978 14.3532 23.2727C16.7844 21.9476 20.4886 27.8214 23.9508 25.8887C27.4129 23.9559 23.6246 18.8023 26.0272 16.713C28.4298 14.6237 31.554 16.98 32.1001 13.4865C32.6462 9.99304 29.5521 11.5082 28.9584 8.20693C28.5625 6.00611 28.5625 4.84884 28.9584 4.73511" stroke="currentColor" stroke-width="4" stroke-linecap="round"/><path d="M29.0209 43.3505C27.1468 41.4325 26.4721 39.6497 26.9969 38.0019C27.7841 35.5303 29.0826 35.6764 29.6488 34.1482C30.2149 32.6199 28.6156 30.4433 32.1643 28.5826C34.5301 27.3421 37.783 28.7794 41.9228 32.8944" stroke="currentColor" stroke-width="4" stroke-linecap="round"/></svg>